<svg width="64" height="64" viewBox="0 0 64 64" fill="none" xmlns="http://www.w3.org/2000/svg">
<path d="M58.3333 29.2285V31.6819C58.33 37.4323 56.468 43.0277 53.0248 47.6334C49.5817 52.2391 44.742 55.6085 39.2276 57.2389C33.7131 58.8694 27.8193 58.6736 22.4252 56.6808C17.0311 54.6879 12.4257 51.0048 9.29589 46.1807C6.16604 41.3566 4.67944 35.6501 5.0578 29.9121C5.43616 24.1741 7.65921 18.7121 11.3954 14.3407C15.1316 9.96944 20.1807 6.92294 25.7898 5.65565C31.3989 4.38835 37.2673 4.96816 42.52 7.30859" stroke="#F44646" stroke-width="4" stroke-linecap="round" stroke-linejoin="round"/>
<path d="M35.437 31.6663L41.5517 25.5517C42.593 24.5103 42.593 22.8223 41.5517 21.781C40.5103 20.7397 38.8223 20.7397 37.781 21.781L31.6663 27.8957L25.5517 21.781C24.5117 20.7397 22.821 20.7397 21.781 21.781C20.7397 22.8223 20.7397 24.5103 21.781 25.5517L27.8957 31.6663L21.781 37.781C20.7397 38.8223 20.7397 40.5103 21.781 41.5517C22.301 42.073 22.9837 42.333 23.6663 42.333C24.349 42.333 25.0317 42.073 25.5517 41.5517L31.6663 35.437L37.781 41.5517C38.3023 42.073 38.9837 42.333 39.6663 42.333C40.349 42.333 41.0303 42.073 41.5517 41.5517C42.593 40.5103 42.593 38.8223 41.5517 37.781L35.437 31.6663Z" fill="#F44646"/>
</svg>
